<svg xmlns="http://www.w3.org/2000/svg" viewBox="102.01 125.65 694.76 199.15"><path fill="#1F1F1F" d="M706.728 187.991c-1.56.085-3.15.165-4.71.073-2.088-.124-6.144-.622-7.524-2.297-.426-.52-.483-1.181-.374-1.842.726-4.414 7.014-6.71 9.936-9.29.98-.866.831-3.356.901-4.652 2.747-2.157 6.254-3.567 9.646-4.312 3.208-.705 6.706-.921 9.563.989 2.078 1.389 2.544 3.748 3.04 6.038 4.114 1.453 9.875 2.87 12.28 6.839-.106.176-.15.256-.278.434-2.237 3.095-8.587 3.16-12.098 3.698-1.19-.026-1.169.08-2.052.9l-.391-.833-1.147-.132a11.7 11.7 0 0 0-3.828 5.388l.15.967c.87.362 2.421.53 3.322.13.14-.062.303-.202.417-.288l.958 1.034c-.052 1.159-.11 2.314-.1 3.474 1.62 1.612 8.195 17.47 9.048 20.318.334 1.126.443 2.252.448 3.423q0 .33-.013.66c7.804 1.524 15.921 3.094 21.001 9.791 3.147-.082 6.6-.36 9.057 2.025.897.872 1.34 1.931 1.314 3.183-.061 2.84-2.36 5.612-4.333 7.441-1.248 1.154-3.476 2.95-5.278 2.973-2.654.032-4.06-3.616-6.249-4.671-1.766 1.632-3.432 3.264-5.704 4.174 2.879 2.756 9.963 33.35 11.1 39.302.541 2.834.897 5.663.968 8.55.127 5.38-1.701 10.809-5.428 14.779-.852.905-1.757 1.466-2.874 1.994 1.75.219 7.757.454 8.631 2.178.049.093.062.2.093.301l.215 1.122c-.901.626-1.17.456-2.237.369l.171.637c2.167 1.16 3.213.773 4.601 3.106l.77-.112.479-.754c.751.284 1.933.783 2.733.794 3.384.047 3.208-4.71 5.572-6.484.866.62.576 2.964 1.191 4.109l.774-.028c1.92-1.56 2.97-4.594 4.253-6.7.686-1.12 1.934-2.659 3.288-2.926.786-.157 1.208-.21 1.876.217-.598.733-1.195 1.505-1.665 2.33-1.121 1.953-2.633 5.722-2.013 7.95l.593.215.989-.82c1.028.685 1.89 1.996 2.812 2.336l-.65.224.448.104.066-.084c2.004.813 4.733.884 6.89 1.178 1.5.528 7.977 5.867 9.396 7.288-30.01-.829-60.077-2.801-90.079-4.12-20.65-.907-41.774-.551-62.244-3.416 4.526-.556 9.114-.723 13.667-.999q-.025-.106-.057-.21c-.501-1.593-2.347-3.227-3.797-3.977.171-.86.272-1.135.004-1.994l-1.757-.33c-.022-.164-.044-.42-.097-.59-.712-2.347-4.75-8.452-6.842-9.472-.203-.594-.501-.86-.95-1.266l.044-.225c.062-.275.084-.338.123-.633.207-1.598-.808-3.032-1.744-4.227 5.954-3.806 12.181-6.952 18.69-9.693 4.02-1.694 8.358-3.156 12.181-5.225.22.19.242.196.462.456 1.226 1.442 2.193 3.58 2.096 5.49q.311-.102.615-.217c3.498-1.345 16.836-11.803 18.185-14.851.206-.235.382-.435.514-.725 1.353-2.98 2.993-15.75 1.793-18.63-.905-1.265-2.936-2.172-4.311-2.847 1.002-1.742 1.226-4.19 1.604-6.153 1.274-6.77 2.14-13.61 2.601-20.484.37-5.567.163-11.625 1.517-17.04 1.31-5.237 8.204-10.276 7.738-15.432m-2.623 106.729c-1.178 3.533-2.531 10.05-5.203 12.589 2.575 1.137 6.583 2.775 7.677 5.546.272.7.035 1.03-.18 1.722 1.986 2.79 10.384.136 13.715.256 2.171.079 4.32.719 6.28 1.636 3.502-2.488.73-3.183 6.477-4.424.348-.328 1.156-.925 1.306-1.348 1.283-3.633-1.415-12.997-3.077-16.5-1.322.144-2.843.486-4.109-.017-.074-2.67-.03-5.475-.33-8.125-.68-5.978-5.154-14.012-9.825-17.761.945 2.428-.334 5.502-1.068 7.893-1.108 3.609-5.076 15.728-8.275 17.414-1.112.885-2.004.876-3.388 1.119m8.27-88.614c.976.48 11.22 14.167 12.969 16.105l.162.962.365.227c.18.11.365.21.536.326 4.403 2.978 18.984 2.66 25.629 5.59-3.516-5.464-14.827-5.051-19.899-8.58-5.563-3.871-9.382-17.99-15.864-19.443-1.024-.23-1.89-.056-2.698.62-1.261 1.055-1.09 2.712-1.2 4.193m27.128 63.785c-.66-2.796-5.735-12.595-8.09-14.042-.22-.133-.506-.214-.752-.277l-.677.296c-.048 3.385 5.59 8.922 7.198 12.197 1.52 3.099 2.475 6.64 3.077 10.028.439 2.447.531 9.8 1.564 11.232l.72-.266.286-.71c.15-.281.211-.367.304-.65 1.582-4.764-1.46-13.534-3.63-17.808m-65.817 20.365c1.006 3.77 3.239 10.264 6.003 13.028l.646-.325c.887-2.275-.224-4.239-1.156-6.386-.923-2.128-2.224-4.519-3.973-6.07-.5-.091-1.015-.218-1.52-.247m42.728-119.153c1.863.258 4.201.881 5.972.11l.672-.696c-.43-1.06-1.213-1.514-2.272-1.94-1.59-.64-3.616-.378-5.255-.047a216 216 0 0 1-8.346 2.489c3.059.011 6.175-.099 9.229.084M693.17 275.99c-.461 2.169-4.179 4.574-6.012 5.769-2.711 1.77-6.481 4.031-9.716 4.514 3.182 4.09 7.049 12.423 6.328 17.65-.404 2.913-2.307 5.18-4.61 6.874-3.832 2.817-9.1 4.86-13.759 5.693 4.316-.117 18.853.134 21.823-1.485.19-.244.348-.454.493-.726 1.147-2.158 3.212-19.357 2.544-21.53.488-1.15.448-1.704.123-2.894-1.288-4.674 3.234-9.057 2.786-13.865m51.065 29.607c.839-.56 1.735-1.132 2.474-1.822 3.093-2.89 4.346-7.94 4.504-12.008.172-4.433-.65-8.98-1.534-13.305-1.05-5.134-7.277-28.46-10.173-31.595-.022.182-.026.315-.083.485-.607 1.916-2.95 3.796-4.698 4.613.409 6.519 13.065 19.82 13.052 33.285 0 2.06-.238 4.47-1.609 6.112-.382.458-.87.859-1.323 1.243.906 3.736 1.196 9.607-.61 12.992m-18.923-98.357 1.775 1.723.637-.1c.418-1.432-.364-3.11-1.037-4.359-1.397-2.584-3.876-5.327-6.79-6.148-1.33-.375-2.847-.456-4.227-.382-1.12.404-2.329.708-3.08 1.697l-.014.696c3.24-.053 7.344-.432 9.857 2.027 1.05 1.026 2.637 3.355 2.879 4.846m6.688 25.89c2.967 2.043 4.368 8.618 6.403 9.567l.312-.336c.844-1.627.444-3.418-.114-5.169-.44-1.389-1.644-3.378-3.037-3.961-1.09-.454-2.448-.343-3.564-.101"/><path fill="#A5A6A4" d="M718.277 226.977q.144-.014.286-.03c.602-.073 1.31-.203 1.911-.09 3.116.58 7.7 5.846 9.594 8.304 2.236 2.907 5.686 8.178 5.062 11.943-.162.98-.681 1.713-1.49 2.26-3.51 2.385-20.733-.404-25.136-1.456l-.29-.739c1.863-.012 3.74-.022 5.598-.17 1.472-.12 3.476-.35 4.478-1.537-1.507-2.996-7.101-2.442-9.523-4.598-.268-.24-.189-.707-.206-1.059 1.358-2.058 4.394-3.25 6.227-5.003.773-2.82-5.427-2.852-6.724-5.412 1.481-2.692 7.497-.136 9.914-2.131.106-.088.198-.188.3-.282"/><path d="M690.262 292.748c.826-.866 1.077-1.462 2.355-1.5 4.606-.132 10.407 1.219 14.876 2.353-1.112.885-2.004.876-3.388 1.119-1.178 3.533-2.531 10.05-5.203 12.589 2.575 1.137 6.583 2.775 7.677 5.546.272.7.035 1.03-.18 1.722-.475.993-.536 1.522-1.648 1.953-4.017 1.562-12.955-1.408-17.526-1.526.19-.244.348-.454.493-.726 1.147-2.158 3.212-19.357 2.544-21.53"/><path d="M739.503 269.89c1.964-4.282-6.047-12.5-6.799-17.304.805-.713.928-.618 2.022-.622.409 6.519 13.065 19.82 13.052 33.285 0 2.06-.238 4.47-1.609 6.112-.382.458-.87.859-1.323 1.243l-.202.206a37 37 0 0 0-.215-1.39c-.277-1.465-.352-2.205-1.6-3.07.15-.282.211-.368.304-.65 1.582-4.765-1.46-13.535-3.63-17.81"/><path fill="#F9F9F9" fill-opacity=".122" d="m742.83 288.35-.286.709-.721.266c-1.033-1.431-1.125-8.785-1.564-11.232-.602-3.388-1.556-6.929-3.077-10.028-1.608-3.275-7.246-8.812-7.198-12.197l.677-.296c.246.063.532.144.751.277 2.356 1.447 7.432 11.246 8.09 14.042 2.172 4.274 5.213 13.044 3.63 17.808-.092.283-.153.369-.303.65"/><path d="m725.506 223.173.132 1.107-.479.294c-4.636-1.912-7.308-8.51-10.424-10.095-.822-.417-1.617-.183-2.254-1.04-.053-1.008-.765-7.452-.756-7.496l.65.163c.976.48 11.22 14.167 12.969 16.105z"/><path fill="#F9F9F9" fill-opacity=".078" d="M715.671 197.973c1.38-.074 2.896.007 4.228.382 2.913.821 5.392 3.564 6.79 6.148.672 1.25 1.454 2.927 1.036 4.359l-.637.1-1.775-1.723c-.242-1.491-1.828-3.82-2.879-4.846-2.513-2.459-6.618-2.08-9.857-2.027l.014-.696c.751-.99 1.96-1.293 3.08-1.697"/><path fill="#F9F9F9" fill-opacity=".039" d="M673.686 290.256c.505.029 1.02.156 1.52.247 1.75 1.551 3.05 3.942 3.973 6.07.932 2.147 2.043 4.111 1.156 6.386l-.646.325c-2.764-2.764-4.997-9.259-6.003-13.028"/><path fill="#F9F9F9" fill-opacity=".024" d="M732.001 233.129c1.116-.242 2.474-.353 3.564.101 1.393.583 2.597 2.572 3.037 3.961.558 1.751.958 3.542.114 5.17l-.312.335c-2.035-.949-3.436-7.524-6.403-9.567"/><path fill="#4AB449" d="M324.785 309.189c1.662-7.987 2.526-16.295 1.751-24.443-2.055-21.614-16.384-55.712-28.405-74.023a201.46 201.46 0 0 0-81.315-71.9c-3.817-1.878-25.1-10.298-25.756-12.529 2.98-.517 7.618 1.955 10.433 3.107a251.7 251.7 0 0 1 49.153 26.51c18.464 12.998 37.553 32.518 50.035 51.314 3.116 4.692 5.611 9.845 8.454 14.712 2.641 4.523 5.679 9.006 7.973 13.701 1.931 3.952 3.363 8.198 5.069 12.254 3.995 9.503 7.598 18.664 9.381 28.897 1.492 8.56 2.002 35.591-3.138 42.626-.654.895-1.547 1.616-2.673 1.784-.973.146-2.187-.088-2.972-.699-2.775-2.162-8.653-20.427-12.28-25.69-5.22-7.571-10.774-14.927-17.314-21.414-30.866-30.62-75.135-43.863-117.894-41.1-20.648 1.335-41.278 6.635-60.561 14.016l-.114-1.759c34.51-13.888 67.629-19.482 104.605-14.013 12.761 2.71 24.76 6.183 36.73 11.416 32.717 15.018 54.515 33.418 68.838 67.233"/><path fill="#1F1F1F" d="M435.294 206.664c4.88-.26 12.201 2.988 15.229 2.392l.25-.224c3.213-2.776 7.814-1.837 11.681-1.505.378.63.58 1.192.69 1.915.879 5.881.747 30.185-.435 35.651-.462 2.153-1.455 4.091-2.782 5.843-3.537 4.665-9.338 6.979-14.98 7.805-5.994.877-21.139.027-25.875-3.497-.126-1.237.396-1.685 1.026-2.71.9-1.717 1.502-3.723 2.202-5.538 6.81 1.919 13.858 4.11 20.963 2.465 2.33-.539 4.742-1.449 6.003-3.616 1.01-1.737 1.279-4.058.734-5.973-2.215 1.972-5.348 3.164-8.231 3.778-5.772 1.231-12.687.015-17.602-3.298-4.044-2.726-6.624-7.02-7.454-11.796-.824-4.743-.031-9.816 2.849-13.75 3.83-5.234 9.659-6.971 15.732-7.942m7.103 27.214c3.147-1.047 5.889-2.11 7.467-5.276a7.42 7.42 0 0 0 .36-5.864c-.883-2.456-2.843-4.27-5.194-5.326-2.435-1.096-4.782-1.296-7.417-1.163-3.095.809-5.933 1.833-7.663 4.719a7.65 7.65 0 0 0-.835 5.902c.645 2.505 2.364 4.547 4.61 5.794 2.587 1.435 5.79 1.761 8.672 1.214"/><path fill="#1F1F1F" d="M378.336 196.553q6.422-.063 12.844.09c7.547 18.011 16.515 35.582 24.6 53.37l-13.742.124c-2.3-3.557-3.86-7.66-5.302-11.623l-5.937-.04-18.66-.06c-1.842 3.795-3.327 7.817-5.058 11.673l-13.215.019c2.334-8.358 7.098-16.768 10.773-24.657 4.478-9.612 8.686-19.562 13.697-28.896m-2.37 32.272c3.408-.092 6.82-.223 10.23-.175l7.218.124c-1.434-2.935-7.373-17.089-9.514-18.077-2.573 6.057-5.573 11.996-7.934 18.128"/><path fill="#4AB449" d="M171.955 236.108c13.845-.167 32.998.313 46.176 4.76-6.484 3.827-13.224 7.45-19.472 11.644q-12.697 7.423-25.308 14.989c-2.683 1.623-6.471 3.314-8.683 5.46-1.75.876-3.436 2-5.123 2.999-8.346-3.006-16.786-6.016-24.856-9.71 6.038-5.365 12.411-10.411 18.626-15.571a985 985 0 0 1 9.705-7.803c2.983-2.243 6.02-4.44 8.935-6.768"/><path fill="#4AB449" d="M167.748 198c9.864-4.557 25.188-5.864 36.045-5.364 4.717.218 9.399 1.042 14.052 1.804 2.241 3.687 5.12 7 7.421 10.667a2366 2366 0 0 0 20.847 29.25c-7.441-2.147-14.898-4.276-22.508-5.749-4.962-1.204-10.495-1.202-15.252-2.951-10.272-3.776-29.232-20.881-40.605-27.658"/><path fill="#1F1F1F" d="M629.688 193.14c4.052-.3 8.143-.165 12.199-.132.55.79.694 1.636.848 2.572.716 4.478 1.209 25.459-.971 28.49 3.019-1.553 16.365-13.463 17.42-16.639l14.836-.005c-.03.14-.053.281-.088.419-.809 3.078-16.185 17.347-19.314 18.94 3.713 1.45 9.927 9.214 11.747 12.848 1.955 1.127 3.95 3.363 5.48 5.043 1.27 1.395 3.4 3.495 3.304 5.503q-7.395.078-14.792.07c-.022-.206-.022-.262-.07-.455-.87-3.31-10.71-13.413-13.953-15.174-.571 1.789-2.509 2.823-3.981 3.785.33.446.452.938.562 1.476.523 2.56.703 8.063-.751 10.253l-13.628-.011q.052-.1.11-.199c2.044-3.475 1.336-49.756 1.042-56.785"/><path fill="#4AB449" d="M229.538 244.034c5.475 1.8 10.937 3.622 16.245 5.882-7.557 6.018-35.65 30.677-42.192 32.74-4.633 1.46-10.552.54-15.314.003-6.852-.771-14.11-1.811-20.63-4.06 12.167-7.658 24.694-14.52 37.102-21.756 4.477-2.102 8.857-4.988 13.164-7.452 3.825-1.94 7.619-3.808 11.625-5.357"/><path fill="#1F1F1F" d="M575.538 207.202c3.876-.431 9.163-.75 12.907.451.629.863.976 1.709 1.345 2.695 2.307.513 5.985-2.864 8.525-3.29 4.984-.837 10.613-.17 14.783 2.82 3.978 2.85 6.289 7.142 7.071 11.913.65 3.968 1.679 25.845-.14 28.372-4.096.515-8.706.068-12.854.041.294-.447.558-.933.668-1.463.654-3.088 1.063-11.79-.594-14.294.128-.204.159-.245.273-.485 1.08-2.257.861-7.134-.009-9.481-.954-2.578-2.654-4.545-5.181-5.684-2.25-1.015-4.966-1.313-7.295-.4-11.28 4.415-3.23 24.882-6.407 31.51-.035.071-.075.138-.11.207-4.236.286-8.635.042-12.89.043q.055-.086.102-.172c.053-.098.096-.199.15-.296.157-.3.302-.581.417-.902 1.08-3.076.707-38.741-.76-41.585"/><path fill="#4AB449" d="M211.335 157.095c26.442-.746 31.54-.642 50.285 18.943 3.469 3.624 6.518 7.648 10.336 10.925l-9.705-1.596c-19.103-2.932-35.653-6.753-55.307-7.677-3.446-6.062-5.252-13.716-7.521-20.318 3.956-.207 7.95-.192 11.912-.277"/><path fill="#4AB449" d="M298.919 147.505c4.915 3.201 25.265 24.017 26.753 29.822-2.066 9.114-4.71 15.92-7.552 24.647-1.537 4.718-2.71 9.562-4.373 14.237l-1.094-.058c-2.144-1.633-6.03-9.244-7.88-11.936-2.217-3.223-4.616-6.33-6.99-9.439 1.483-2.293 1.047-41.364 1.136-47.273"/><path fill="#4AB449" d="M210.333 184.275c24.009 1.887 47.287 6.627 70.443 13.202 4.69 5.519 9.419 11.205 12.862 17.609.75 1.394 1.565 2.734 1.094 4.296-9.433-.577-18.924-3.639-28.187-5.497-16.007-15.818-33.241-22.308-55.136-25.911-.622-1.008-1.193-1.927-1.535-3.074z"/><path fill="#4AB449" d="M261.4 130.81c10.834 3.234 21.231 7.735 31.75 11.84-4.202 8.281-.112 37.743-2.71 42.028-9.78-7.593-14.587-12.865-19.892-23.904-.233-2.048-1.868-5.047-2.623-7.073-1.378-3.693-7.275-20.31-6.525-22.891"/><path fill="#4AB449" d="M160.406 200.377c4.75 3.578 9.45 7.246 14.368 10.589 3.112 2.72 6.457 5.334 9.885 7.646l7.94 6.293c-11.327.383-22.304.91-33.45 3.097-8.385-3.663-17.209-6.624-25.786-9.823 7.515-7.511 17.303-13.64 27.043-17.802"/><path fill="#1F1F1F" d="M529.668 192.26c3.977-.246 7.994-.006 11.975.126q.061.085.115.174c1.55 2.66 1.916 51.61.558 56.802l-1.226.648c-1.85 1.249-9.646.284-12.138.189.15-.215.189-.254.299-.468 1.01-2.034 1.41-54.163.417-57.472"/><path fill="#1F1F1F" d="M495.95 207.2c1.322-.134 2.869-.496 4.029.263.734 2.24 1.705 5.019 1.323 7.4-.712 4.463-6.162 3.95-9.422 5.28-1.433.581-2.804 1.768-4.074 2.654.022.09.057.177.075.27.272 1.72-.809 5.23-.875 7.254-.193 5.625.396 11.412-.092 17.004-.101 1.127-.286 2.024-.914 2.98-3.147.233-6.658.636-9.782.148-1.846-.287-2.4-.912-3.441-2.364.452-.564.861-1.073.988-1.806.778-4.525.901-35.679-1.419-38.957q6.736.02 13.465.112c.026.053.061.105.088.16.742 1.517.347 3.614-.185 5.143 3.292-.882 7.392-3.65 10.235-5.542"/><path fill="#4AB449" d="M233.25 200.07c13.49 2.982 26.917 14.822 34.207 26.201 1.898 2.962 6.872 10.792 5.853 14.347-.263.92-.913 1.538-1.81 1.844-3.343 1.143-8.558-1.127-11.484-2.819-1.46-.844-2.635-1.806-3.702-3.107a380 380 0 0 0-13.378-20.775c-3.332-4.832-7.037-9.631-9.958-14.717z"/><path fill="#1F1F1F" d="M507.239 207.202c3.836-.06 7.677-.023 11.513.11 1.464 2.626.88 36.298.576 41.646-.664.972-1.35.98-2.421 1.31-3.718.436-7.69.125-11.44.08 2.484-5.625-.039-33.963.923-42.665z"/><path fill="#1F1F1F" d="M552.27 207.64c4.192-.728 8.85-.365 13.082-.103 1.266 1.933 1.041 35.789.62 39.7-.159 1.45-.286 1.692-1.45 2.592-1.846 1.467-9.563.642-12.143.609.229-.333.435-.681.567-1.065 1.464-4.215 1.156-38.126-.677-41.732"/><path fill="#4AB449" d="M224.852 126.008c6.754.611 22.832 1.282 28.631 4.065.602.819.724 1.55.908 2.527 1.016 4.427 2.09 8.772 3.639 13.052 1.344 3.715 3.3 7.612 4.124 11.457-6.953-3.751-23.898-13.261-29.49-17.968-1.397-1.176-2.415-2.662-3.43-4.164-1.424-3.034-2.746-6.035-4.382-8.97"/><path fill="#4AB449" d="M105.644 253.333c8.662-3.926 43.184-15.623 50.85-13.941-3.451 3.566-26.764 21.028-27.292 22.723l-1.772.848c-3.966.14-17.7-7.595-21.786-9.63"/><path fill="#4AB449" d="M254.317 253.91c3.153.17 6.676 3.01 9.176 4.807-.563 1.092-1.136 2.201-1.768 3.255-6.792 11.323-24.834 16.782-36.77 19.707-2.852.56-5.602.756-8.503.861a1749 1749 0 0 1 37.865-28.63"/><path fill="#4AB449" d="M275.096 224.054c7.408.139 20.54 4.072 27.29 7.192 1.65 2.613 4.89 7.65 5.014 10.69.03.737-.36.902-.85 1.402-5.508 1.524-14.294 3.265-19.813 1.233-7.434-2.738-8.681-14.041-11.641-20.517"/><path fill="#4AB449" d="M191.121 130.737c.986.164 1.97.463 2.912.794 3.404 1.197 33.1 16.2 34.156 18.385-9.816 1.368-21.12.842-31.111 1.054-2.181-6.665-3.833-13.533-5.957-20.233"/><path fill="#A5A6A4" fill-opacity=".043" d="M230.773 201.027c.416-.528.928-.861 1.472-1.242l1.005.285-.272.974c2.92 5.086 6.626 9.885 9.958 14.717a380 380 0 0 1 13.378 20.775c-.794.734-1.343 1.09-1.692 2.156.738.789 1.57 1.305 2.477 1.872-.227.817-.494.888-1.153 1.392-11.969-5.233-23.968-8.707-36.729-11.416.94-.7 2.676-.839 3.847-1.18l-.57-.182 1.111-.57c7.61 1.473 15.067 3.602 22.508 5.75a2366 2366 0 0 1-20.847-29.251c1.665-1.024 1.902-1.478 2.782-3.221 7.237 9.98 13.08 21.183 20.606 30.893 1.1 1.42 3.13 4.295 4.922 4.52.308-1.276-.324-2.581-.926-3.723-1.594-3.022-3.813-5.844-5.754-8.653-5.417-7.843-11.434-15.61-16.123-23.896"/><path fill="#4AB449" d="m328.39 193.692 1.582-1.76.48.117c2.431 7.056 1.137 26.71-2.223 33.643-.85 1.75-2.342 3.693-4.266 4.319-1.839.598-3.924-.01-5.677-.643-.35-8.446 9.465-26.215 10.104-35.676"/><path fill="#4AB449" d="M126.573 224.06c6.193.751 13.333 4.22 19.3 6.307-5.558 1.45-11.058 3.233-16.56 4.889-3.48 1.106-7.053 2.81-10.655 3.398-1.365.223-2.27.199-3.394-.59l-.086-1.09c1.69-4.77 7.635-9.671 11.395-12.914"/><path fill="#4AB449" d="M200.086 253.948c6.349-3.571 12.797-7.553 19.483-10.459 1.721-.747 3.864-1.64 5.718-.915l.09.464c-2.958 1.93-6.045 3.691-9.08 5.499-3.485 1.69-10.117 4.846-12.888 7.34a1089 1089 0 0 0-24.34 13.507c-4.218 2.457-8.389 5.386-12.715 7.606-.835.43-1.714.595-2.639.446l-.462-.751c.395-1.301 1.764-1.911 2.852-2.585 5.656-3.158 11.137-6.697 16.747-9.95 5.716-3.315 11.805-6.44 17.234-10.202"/><path fill="#4AB449" d="M207.13 179.785c4.33-.145 8.893.545 13.199 1.008a395 395 0 0 1 51.842 9.545c3.151.78 6.425 1.266 8.219 4.24-11.8-1.439-23.857-5.02-35.534-7.41-12.045-2.466-24.06-3.761-36.273-5.015-.946-.729-1.043-1.278-1.452-2.368"/><path fill="#1F1F1F" d="M510.759 189.183c2.513-.284 4.812-.093 6.974 1.363 1.564 1.052 2.768 2.619 3.124 4.493.277 1.489-.074 2.979-.945 4.213-1.432 2.028-3.735 2.718-6.064 3.117-1.696.193-3.568.068-5.181-.522a5.38 5.38 0 0 1-3.05-2.88c-.747-1.73-.589-3.787.101-5.508.963-2.405 2.777-3.278 5.04-4.276"/><path fill="#1F1F1F" d="M556.936 189.183c2.14-.227 4.06-.175 6.06.723 1.956.88 3.718 2.545 4.43 4.6.484 1.396.43 3.049-.303 4.35-1.226 2.182-3.55 3.119-5.867 3.671-1.204.666-3.177.469-4.451.078-1.6-.49-2.91-1.833-3.64-3.304-.887-1.79-1.124-4.05-.474-5.956.77-2.235 2.215-3.144 4.245-4.162"/><path fill="#4AB449" fill-opacity=".976" d="m250.883 251.186 1.121.624.135.69c-3.467 4.291-9.177 7.535-13.613 10.8l-27.747 20.207c-.52.047-.915-.102-1.408-.248.903-4.047 36.187-28.235 41.512-32.073"/><path fill="#4AB449" d="m326.871 181.862 1.081-.036c.678.847.778 1.384.642 2.481-.181 1.474-.555 3.6-1.151 4.946-1.655 6.278-7.874 31-10.597 34.451-.28.356-.986.815-1.382 1.068 1.1-14.681 6.75-29.009 11.407-42.91"/><path fill="#4AB449" fill-opacity=".961" d="M228.048 201.886c-.705-1.143-1.416-2.197-1.712-3.526l.374-.523c1.584.535 2.869 2.05 4.063 3.19 4.689 8.285 10.706 16.053 16.123 23.896 1.94 2.81 4.16 5.631 5.754 8.653.602 1.142 1.234 2.447.926 3.723-1.793-.225-3.822-3.1-4.922-4.52-7.527-9.71-13.369-20.913-20.606-30.893"/><path fill="#4AB449" fill-opacity=".988" d="M157.786 240.693c3.212-2.416 5.882-3.742 9.813-4.656l-5.777 5.485c-2.686 2.09-7.935 5.598-9.826 8.137-4.576 3.51-15.998 13.447-20.746 14.78l-1.035-.25c-.112-.368-.25-.589-.165-.97 2.94-1.788 5.754-4.408 8.445-6.57a1403 1403 0 0 0 19.291-15.956"/><path fill="#F9F9F9" fill-opacity=".024" d="M293.15 142.65c.052.996.114 1.983.23 2.974.405-.04.65-.055 1.021-.237-.032 7.894-.644 15.755-.751 23.645-.087 6.45.466 13.446-.196 19.823-.599-1.344-.773-2.663-1.514-3.978l-1.5-.2c2.598-4.284-1.492-33.746 2.71-42.027"/><path fill="#4AB449" fill-opacity=".918" d="m294.401 145.387.931-.821c.797.22.832.191 1.298.864.633 9.638-1.804 23.937-.475 32.099-.306 2.844.192 9.665-1.482 11.67l-1.219-.344c.662-6.377.109-13.374.196-19.823.107-7.89.719-15.75.751-23.645"/><path fill="#4AB449" fill-opacity=".973" d="M162.097 198.045c2.095.739 4 1.598 5.903 2.746 4.726 2.85 30.293 20.42 32.206 23.763.1.177.167.412.23.597-3.503.22-10.512-5.672-13.374-7.737-3.567-2.706-7.095-5.625-10.9-7.986-4.597-3.611-10.262-6.942-14.065-11.383"/><path fill="#A5A6A4" fill-opacity=".012" d="M296.63 145.43c.843.616 1.75 1.16 2.289 2.075-.09 5.909.347 44.98-1.136 47.273-1.48-1.752-.56-13.882-1.628-17.25-1.329-8.16 1.108-22.46.475-32.098"/><path fill="#4AB449" d="M201.122 152.675c7.984-.25 30.897-1.902 36.973 2.23l-.033.597-1.526.118c-5.592-.22-35.322.15-37.971-1.152l-.142-.628c.958-.929 1.428-.927 2.7-1.165"/><path fill="#4AB449" fill-opacity=".965" d="M259.635 131.788c1.71 9.885 7.26 21.11 8.578 30.507l-.159.626-.889-.202c-.867-1.43-1.603-2.874-2.304-4.392-3.944-8.394-5.597-17.43-8.528-26.13z"/><path fill="#F9F9F9" fill-opacity=".059" d="M313.747 216.211c1.662-4.675 2.836-9.52 4.373-14.237 2.842-8.728 5.486-15.533 7.552-24.647.029 1.384.074 2.75.218 4.127.354.2.572.355.981.408-4.657 13.901-10.306 28.229-11.407 42.91-1.116-2.676-.058-5.512-.655-8.285z"/><path fill="#4AB449" d="M270.017 217.175c4.51.203 24.252 5.027 28.278 6.899 1.499.697 1.669 1.557 2.178 2.984-5.08-.78-23.639-5.095-27.87-7.042-1.48-.68-2.008-1.346-2.586-2.84"/><path fill="#F9F9F9" fill-opacity=".02" d="M164.668 272.96c2.212-2.145 6-3.836 8.683-5.46a2585 2585 0 0 1 25.308-14.988l1.427 1.436c-5.43 3.762-11.518 6.887-17.234 10.202-5.61 3.253-11.09 6.792-16.747 9.95z"/><path fill="#4AB449" d="M203.77 127.778c4.544-1.292 9.29-1.76 13.984-2.126.821 1.28 1.567 2.62 2.343 3.929.548 1.022 2.344 3.642 2.046 4.703-.036.13-.132.236-.199.354-6.121-2.119-12.14-4.505-18.173-6.86"/><path fill="#F9F9F9" fill-opacity=".043" d="M315.464 224.772c.396-.253 1.101-.712 1.382-1.068 2.723-3.451 8.942-28.173 10.597-34.45.046 1.192-.206 3.494.69 4.282.074.066.17.104.257.156-.64 9.461-10.454 27.23-10.104 35.676-.945-1.096-.77-2.47-.975-3.84a16 16 0 0 1-1.847-.756"/><path fill="#F9F9F9" fill-opacity=".059" d="M156.494 239.392c.382.52.681 1.031 1.292 1.3a1403 1403 0 0 1-19.29 15.958c-2.692 2.161-5.506 4.781-8.446 6.57-.228-.487-.48-.729-.848-1.105.528-1.695 23.841-19.157 27.292-22.723"/><path fill="#F9F9F9" fill-opacity=".078" d="M259.635 131.788c.303-.376.499-.769.724-1.193l1.041.215c-.75 2.58 5.147 19.198 6.525 22.891.755 2.026 2.39 5.025 2.623 7.073-.777.498-1.595.972-2.335 1.52-1.319-9.397-6.868-20.621-8.578-30.506"/><path fill="#4AB449" d="M129.62 220.26c6.824.435 14.786 3.916 21.14 6.515 1.183.484 3.016 1.01 3.514 2.187-4.8.31-20.732-4.943-24.78-8.025z"/><path fill="#F9F9F9" fill-opacity=".051" d="M254.391 132.6c.472.55.823.965 1.484 1.28l.458-1.682c2.931 8.7 4.584 17.735 8.528 26.129l-2.707-1.218c-.824-3.845-2.78-7.742-4.124-11.457-1.549-4.28-2.623-8.625-3.639-13.052"/><path fill="#1F1F1F" fill-opacity=".98" d="M644.62 298.427c.449.406.747.672.95 1.266-.646 2.395-.506 4.957.764 7.133.844 1.444 2.1 3.07 3.797 3.513.589.153 1.209.2 1.81.24.379-.334.484-.301.568-.824l1.757.33c.268.859.167 1.133-.004 1.994-2.588 1.556-6.108.064-8.829-.607-.958-1.977-2.263-5.498-3.484-7.045 1.217-1.814 1.766-4.02 2.671-6"/><path fill="#F9F9F9" fill-opacity=".016" d="M176.161 209.428c3.806 2.361 7.334 5.28 10.9 7.986l-1.6-.015c-.381.414-.61.67-.802 1.213-3.428-2.312-6.773-4.925-9.885-7.646.556-.411.958-1.001 1.387-1.538"/><path fill="#F9F9F9" fill-opacity=".063" d="M203.409 255.877c2.77-2.494 9.403-5.65 12.888-7.34l1.616.854c-4.307 2.464-8.687 5.35-13.164 7.452z"/><path d="M764.714 309.326c.027 1.554-.347 2.216-1.468 3.329-.905.898-2.017 1.671-3.027 2.443l-.48.754-.769.112c-1.388-2.333-2.434-1.946-4.6-3.106l-.172-.637c1.068.087 1.336.257 2.237-.37l-.215-1.12c1.34.687 2.601 1.684 4.179 1.2 1.432-.442 3.058-1.787 4.315-2.605"/><path fill="#F9F9F9" fill-opacity=".063" d="M151.996 249.66c1.89-2.54 7.14-6.049 9.826-8.138.381.5.698.966 1.198 1.354a985 985 0 0 0-9.705 7.803z"/><path fill="#1F1F1F" fill-opacity=".953" d="M725.058 184.569c.883-.82.861-.926 2.052-.9.848 2.435.88 3.864-.264 6.213-.733 1.506-1.753 2.892-2.408 4.427-.009-1.16.049-2.315.101-3.474l-.958-1.034q.49-.423.875-.95c.927-1.28.848-2.806.602-4.282"/><path fill="#F9F9F9" fill-opacity=".059" d="M223.742 127.558c.674-.3.787-.902 1.11-1.55 1.636 2.934 2.958 5.935 4.382 8.97q-.258.129-.517.253c-1.021.49-1.287.793-2.395.41l.532-.451c-.215-2.404-2.103-5.42-3.112-7.632"/><path d="M784.463 309.2c.19 2.114-.492 3.277-1.837 4.896-.663.798-1.323 1.593-2.14 2.239l-.066.084-.448-.104.65-.224c-.923-.34-1.784-1.65-2.812-2.336 2.17-1.448 4.693-2.854 6.653-4.555"/><path fill="#4AB449" fill-opacity=".89" d="m220.95 126.736 2.792.822c1.01 2.213 2.897 5.228 3.112 7.632l-.532.45-1.56-1.37c-1.503-2.196-2.965-5.009-3.813-7.534"/><path fill="#4AB449" fill-opacity=".929" d="m114.612 244.553.114 1.76a333 333 0 0 1-12.712 4.802c3.766-3.093 8.112-4.777 12.598-6.562"/><path fill="#F9F9F9" fill-opacity=".059" d="M220.097 129.58c.957-.924.756-1.546.852-2.844.848 2.525 2.31 5.338 3.812 7.535-1.178.432-1.63.858-2.817.367.067-.118.163-.224.2-.354.297-1.061-1.499-3.681-2.047-4.703"/></svg>